<svg width="36" height="44" viewBox="0 0 36 44" fill="none" xmlns="http://www.w3.org/2000/svg">
<g id="Vector">
<path d="M29.8991 23.3991C29.9208 21.7126 30.3688 20.059 31.2013 18.5922C32.0339 17.1253 33.2239 15.8929 34.6607 15.0095C33.7479 13.706 32.5438 12.6331 31.1439 11.8763C29.744 11.1195 28.1869 10.6996 26.5963 10.6498C23.2032 10.2936 19.9138 12.6801 18.1848 12.6801C16.4223 12.6801 13.7602 10.6852 10.8936 10.7441C9.03933 10.804 7.23223 11.3432 5.64835 12.3092C4.06446 13.2751 2.7578 14.6349 1.85568 16.256C-2.05211 23.0217 0.86275 32.9651 4.60609 38.434C6.47896 41.112 8.66781 44.1033 11.5319 43.9973C14.3345 43.881 15.3813 42.2101 18.7643 42.2101C22.116 42.2101 23.098 43.9973 26.0202 43.9298C29.0276 43.881 30.9224 41.2399 32.7296 38.5366C34.0752 36.6285 35.1107 34.5195 35.7976 32.288C34.0504 31.549 32.5594 30.312 31.5105 28.7313C30.4616 27.1506 29.9011 25.2962 29.8991 23.3991Z" fill="white"/>
<path d="M24.3796 7.05306C26.0194 5.0846 26.8272 2.55448 26.6316 0C24.1264 0.26312 21.8123 1.46043 20.1504 3.35337C19.3379 4.27812 18.7156 5.35394 18.319 6.51935C17.9225 7.68476 17.7595 8.91689 17.8395 10.1453C19.0925 10.1582 20.3322 9.88662 21.465 9.35099C22.5979 8.81536 23.5944 8.02966 24.3796 7.05306Z" fill="white"/>
</g>
</svg>
