<svg width="36" height="41" viewBox="0 0 36 41" fill="none" xmlns="http://www.w3.org/2000/svg">
<g id="Vector">
<path d="M16.8076 19.2358L0.152761 36.9308C0.154325 36.9339 0.154325 36.937 0.155889 36.9402C0.665842 38.8631 2.41939 40.2772 4.49987 40.2772C5.33206 40.2772 6.11264 40.0517 6.78214 39.657L6.83533 39.6257L25.5816 28.7973L16.8076 19.2358Z" fill="white"/>
<path d="M33.6583 16.2231L33.6426 16.2121L25.5491 11.5143L16.431 19.6368L25.5804 28.7943L33.6317 24.1451C35.0427 23.3825 36 21.8933 36 20.1755C36 18.4702 35.0552 16.9872 33.6583 16.2231Z" fill="white"/>
<path d="M0.153298 3.34633C0.0531846 3.71589 0 4.10267 0 4.50512V35.772C0 36.1745 0.0510832 36.5628 0.152761 36.9308L17.3806 19.6884L0.153298 3.34633Z" fill="white"/>
<path d="M16.9296 20.1378L25.5503 11.5111L6.82438 0.643597C6.14392 0.23489 5.35084 0 4.49987 0C2.41939 0 0.664278 1.41717 0.152761 3.34169L0.153298 3.34633L16.9296 20.1378Z" fill="white"/>
</g>
</svg>
