<svg width="33" height="32" viewBox="0 0 33 32" fill="none" xmlns="http://www.w3.org/2000/svg">
<g id="Icons/instagram">
<path id="vector" fill-rule="evenodd" clip-rule="evenodd" d="M16.8876 4C13.6284 4 13.2204 4.0136 11.9404 4.072C10.6628 4.1304 9.78997 4.3336 9.02677 4.6304C8.22677 4.9312 7.50117 5.4032 6.90117 6.0144C6.29095 6.61371 5.81866 7.3388 5.51717 8.1392C5.22197 8.9024 5.01797 9.776 4.95957 11.0536C4.90197 12.3328 4.88757 12.74 4.88757 16C4.88757 19.26 4.90117 19.6672 4.95957 20.9472C5.01797 22.2248 5.22117 23.0976 5.51797 23.8608C5.81877 24.6608 6.29077 25.3864 6.90197 25.9864C7.5013 26.5966 8.22638 27.0689 9.02677 27.3704C9.78997 27.6664 10.6628 27.8696 11.9404 27.928C13.2204 27.9864 13.6284 28 16.8876 28C20.1468 28 20.5548 27.9864 21.8348 27.928C23.1124 27.8696 23.9852 27.6664 24.7484 27.3696C25.5484 27.0688 26.274 26.5968 26.874 25.9856C27.4842 25.3863 27.9565 24.6612 28.258 23.8608C28.554 23.0976 28.7572 22.2248 28.8156 20.9472C28.874 19.6672 28.8876 19.2592 28.8876 16C28.8876 12.7408 28.874 12.3328 28.8156 11.0528C28.7572 9.7752 28.554 8.9024 28.2572 8.1392C27.9559 7.33845 27.4836 6.61306 26.8732 6.0136C26.2739 5.40338 25.5488 4.93109 24.7484 4.6296C23.9852 4.3344 23.1116 4.1304 21.834 4.072C20.5548 4.0144 20.1476 4 16.8876 4ZM16.8876 6.1624C20.0916 6.1624 20.4716 6.1744 21.7372 6.232C22.9068 6.2856 23.542 6.48 23.9652 6.6456C24.5252 6.8624 24.9252 7.1232 25.3452 7.5424C25.7652 7.9624 26.0252 8.3624 26.242 8.9224C26.4068 9.3456 26.602 9.9808 26.6556 11.1504C26.7132 12.416 26.7252 12.796 26.7252 16C26.7252 19.204 26.7132 19.584 26.6556 20.8496C26.602 22.0192 26.4076 22.6544 26.242 23.0776C26.0499 23.5988 25.7435 24.0704 25.3452 24.4576C24.958 24.856 24.4865 25.1624 23.9652 25.3544C23.542 25.5192 22.9068 25.7144 21.7372 25.768C20.4716 25.8256 20.0924 25.8376 16.8876 25.8376C13.6828 25.8376 13.3036 25.8256 12.038 25.768C10.8684 25.7144 10.2332 25.52 9.80997 25.3544C9.28874 25.1623 8.81718 24.8559 8.42997 24.4576C8.03171 24.0704 7.72528 23.5988 7.53317 23.0776C7.36837 22.6544 7.17317 22.0192 7.11957 20.8496C7.06197 19.584 7.04997 19.204 7.04997 16C7.04997 12.796 7.06197 12.416 7.11957 11.1504C7.17317 9.9808 7.36757 9.3456 7.53317 8.9224C7.74997 8.3624 8.01077 7.9624 8.42997 7.5424C8.81713 7.14404 9.2887 6.83758 9.80997 6.6456C10.2332 6.4808 10.8684 6.2856 12.038 6.232C13.3036 6.1744 13.6836 6.1624 16.8876 6.1624Z" fill="#7E859D"/>
<path id="vector_2" fill-rule="evenodd" clip-rule="evenodd" d="M16.8876 20.0037C16.3618 20.0037 15.8411 19.9002 15.3553 19.6989C14.8696 19.4977 14.4282 19.2028 14.0563 18.831C13.6845 18.4592 13.3896 18.0178 13.1884 17.532C12.9872 17.0462 12.8836 16.5255 12.8836 15.9997C12.8836 15.4739 12.9872 14.9532 13.1884 14.4675C13.3896 13.9817 13.6845 13.5403 14.0563 13.1685C14.4282 12.7967 14.8696 12.5017 15.3553 12.3005C15.8411 12.0993 16.3618 11.9957 16.8876 11.9957C17.9495 11.9957 18.968 12.4176 19.7189 13.1685C20.4698 13.9194 20.8916 14.9378 20.8916 15.9997C20.8916 17.0616 20.4698 18.0801 19.7189 18.831C18.968 19.5819 17.9495 20.0037 16.8876 20.0037ZM16.8876 9.83172C15.2517 9.83172 13.6829 10.4816 12.5262 11.6383C11.3694 12.795 10.7196 14.3639 10.7196 15.9997C10.7196 17.6356 11.3694 19.2044 12.5262 20.3612C13.6829 21.5179 15.2517 22.1677 16.8876 22.1677C18.5235 22.1677 20.0923 21.5179 21.249 20.3612C22.4058 19.2044 23.0556 17.6356 23.0556 15.9997C23.0556 14.3639 22.4058 12.795 21.249 11.6383C20.0923 10.4816 18.5235 9.83172 16.8876 9.83172ZM24.85 9.71972C24.85 10.1064 24.6964 10.4773 24.423 10.7507C24.1495 11.0241 23.7787 11.1777 23.392 11.1777C23.0053 11.1777 22.6345 11.0241 22.361 10.7507C22.0876 10.4773 21.934 10.1064 21.934 9.71972C21.934 9.33303 22.0876 8.96219 22.361 8.68876C22.6345 8.41533 23.0053 8.26172 23.392 8.26172C23.7787 8.26172 24.1495 8.41533 24.423 8.68876C24.6964 8.96219 24.85 9.33303 24.85 9.71972Z" fill="#7E859D"/>
</g>
</svg>
