<svg width="33" height="32" viewBox="0 0 33 32" fill="none" xmlns="http://www.w3.org/2000/svg">
<g id="Icons/linkedin">
<path id="vector" d="M28.8876 5.76471V26.2353C28.8876 26.7033 28.7017 27.1522 28.3707 27.4831C28.0398 27.8141 27.5909 28 27.1229 28H6.65228C6.18425 28 5.73539 27.8141 5.40444 27.4831C5.0735 27.1522 4.88757 26.7033 4.88757 26.2353V5.76471C4.88757 5.29668 5.0735 4.84782 5.40444 4.51687C5.73539 4.18592 6.18425 4 6.65228 4H27.1229C27.5909 4 28.0398 4.18592 28.3707 4.51687C28.7017 4.84782 28.8876 5.29668 28.8876 5.76471ZM11.9464 13.1765H8.41699V24.4706H11.9464V13.1765ZM12.264 9.29412C12.2659 9.02715 12.2152 8.76242 12.1147 8.51506C12.0143 8.2677 11.8661 8.04255 11.6786 7.85246C11.4911 7.66237 11.2681 7.51107 11.0221 7.4072C10.7762 7.30332 10.5122 7.24891 10.2452 7.24706H10.1817C9.63878 7.24706 9.1181 7.46273 8.7342 7.84663C8.3503 8.23053 8.13463 8.7512 8.13463 9.29412C8.13463 9.83703 8.3503 10.3577 8.7342 10.7416C9.1181 11.1255 9.63878 11.3412 10.1817 11.3412C10.4487 11.3477 10.7143 11.3016 10.9635 11.2055C11.2127 11.1094 11.4405 10.9651 11.6338 10.7809C11.8272 10.5967 11.9824 10.3762 12.0905 10.132C12.1987 9.88775 12.2576 9.62464 12.264 9.35765V9.29412ZM25.3582 17.6094C25.3582 14.2141 23.1982 12.8941 21.0523 12.8941C20.3497 12.8589 19.6501 13.0086 19.0234 13.3281C18.3967 13.6477 17.8647 14.126 17.4805 14.7153H17.3817V13.1765H14.064V24.4706H17.5935V18.4635C17.5424 17.8483 17.7362 17.2378 18.1327 16.7646C18.5292 16.2915 19.0964 15.9939 19.7111 15.9365H19.8452C20.9676 15.9365 21.8005 16.6424 21.8005 18.4212V24.4706H25.3299L25.3582 17.6094Z" fill="#7E859D"/>
</g>
</svg>
