<svg width="135" height="37" viewBox="0 0 135 37" fill="none" xmlns="http://www.w3.org/2000/svg">
<path d="M45.4819 33.0156L41.2187 3.04415C40.9711 1.30222 39.4144 0.0033857 37.5747 0.0033857H37.1679L28.0543 9.86646C27.4316 10.5396 27.9234 11.6016 28.8645 11.6152L33.538 11.6794C34.6241 11.6963 35.0345 13.0425 34.1288 13.6108L10.8107 28.287C9.79882 28.9228 8.61009 27.7593 9.29997 26.8088L16.4854 16.9018C16.9701 16.2321 16.5102 15.3121 15.6611 15.2512L7.67251 14.683C6.89772 14.6289 6.4237 13.8442 6.76334 13.1744L13.4287 0H7.9414C6.1017 0 4.5451 1.29888 4.29745 3.04081L0.0342837 33.0122C-0.266436 35.1228 1.44945 37 3.67832 37H41.8379C44.0667 37 45.7826 35.1228 45.4819 33.0122V33.0156Z" fill="url(#paint0_linear_506_11285)"/>
<path d="M56.2373 32.1017H61.5902L61.5477 20.5035H70.9762V15.9711H61.5512L61.5088 8.90528H73.8453V4.44727H56.2373V32.1017Z" fill="white"/>
<path d="M83.6838 27.7655C82.3606 27.7655 82.1589 27.0214 82.1589 24.4677L82.1201 4.44727H76.7637V26.0743C76.7637 31.0769 78.7095 32.1017 81.6353 32.1017C82.8135 32.1017 83.5352 31.9022 84.1366 31.6857L84.2923 31.6316V27.7283L84.034 27.7486C83.9067 27.7587 83.7935 27.7655 83.6838 27.7655Z" fill="white"/>
<path d="M108.927 28.5701C107.537 28.5701 107.087 27.711 107.087 25.0288L107.112 11.8882H103.698L102.707 14.5704C101.49 12.6255 99.0597 11.4688 96.2081 11.4688C90.2327 11.4688 86.2207 15.7441 86.2207 22.1131C86.2207 28.4822 90.0806 32.5546 95.8261 32.5546C99.0774 32.5546 101.568 31.4384 102.668 29.4901L102.693 29.4462L102.711 29.5815C102.948 31.4993 104.335 32.514 106.723 32.514C107.537 32.514 108.555 32.3483 109.387 32.0811L109.55 32.0303V28.5363L109.291 28.5566C109.16 28.5668 109.044 28.5735 108.93 28.5735L108.927 28.5701ZM96.6469 28.0019C93.3921 28.0019 91.2056 25.6004 91.2056 22.0286C91.2056 18.4568 93.3743 16.0587 96.6044 16.0587C99.8345 16.0587 102.046 18.3451 102.046 22.0286C102.046 25.712 99.9761 28.0019 96.6469 28.0019Z" fill="white"/>
<path d="M117.769 11.8926H112.412V32.1024H117.769V11.8926Z" fill="white"/>
<path d="M134.071 11.5229C131.488 11.6717 129.118 12.9401 128.031 14.7564L127.957 14.8782H127.334L127.31 14.6618C127.08 12.5139 125.81 11.4688 123.422 11.4688C122.636 11.4688 121.646 11.6277 120.842 11.8882L120.68 11.9389V15.3315L120.938 15.3078C121.062 15.2976 121.179 15.2909 121.288 15.2909C122.629 15.2909 123.057 16.1195 123.057 18.7071V32.098H128.413L128.452 22.6645C128.452 19.2347 130.296 17.5063 134.085 17.3744L134.315 17.3677V11.5026L134.063 11.5161L134.071 11.5229Z" fill="white"/>
<defs>
<linearGradient id="paint0_linear_506_11285" x1="0" y1="18.5006" x2="45.5162" y2="18.5006" gradientUnits="userSpaceOnUse">
<stop stop-color="#01E5FF"/>
<stop offset="0.44" stop-color="#795AFC"/>
<stop offset="1" stop-color="#283FF8"/>
</linearGradient>
</defs>
</svg>
